<?xml version="1.0" encoding="UTF-8"?>
<svg xmlns="http://www.w3.org/2000/svg" width="256" height="256" viewBox="0 0 256 256" aria-hidden="true">
  <defs>
    <linearGradient id="bg" x1="12%" y1="8%" x2="88%" y2="92%">
      <stop offset="0%" stop-color="#0d5a7a"/>
      <stop offset="50%" stop-color="#0b2538"/>
      <stop offset="100%" stop-color="#0b1622"/>
    </linearGradient>
    <linearGradient id="north" x1="0%" y1="100%" x2="0%" y2="0%">
      <stop offset="0%" stop-color="#0073ad"/>
      <stop offset="100%" stop-color="#4dabf7"/>
    </linearGradient>
  </defs>
  <rect x="16" y="16" width="224" height="224" rx="52" fill="url(#bg)"/>
  <g transform="translate(128 128)">
    <circle r="62" fill="none" stroke="#ffffff" stroke-width="2" opacity="0.3"/>
    <g fill="#ffffff" opacity="0.72">
      <polygon points="0,-64 5,-5 0,0 -5,-5" transform="rotate(45)"/>
      <polygon points="0,-64 5,-5 0,0 -5,-5" transform="rotate(135)"/>
      <polygon points="0,-64 5,-5 0,0 -5,-5" transform="rotate(225)"/>
      <polygon points="0,-64 5,-5 0,0 -5,-5" transform="rotate(315)"/>
    </g>
    <g fill="#ffffff">
      <polygon points="0,-68 9,-8 0,0 -9,-8" transform="rotate(90)"/>
      <polygon points="0,-68 9,-8 0,0 -9,-8" transform="rotate(180)"/>
      <polygon points="0,-68 9,-8 0,0 -9,-8" transform="rotate(270)"/>
    </g>
    <polygon points="0,-68 9,-8 0,0 -9,-8" fill="url(#north)"/>
    <circle r="10" fill="#ffffff"/>
    <circle r="4.5" fill="#0b1622"/>
  </g>
</svg>
