<?xml version="1.0" encoding="UTF-8"?>
<svg xmlns="http://www.w3.org/2000/svg" width="1024" height="1024" viewBox="0 0 1024 1024" role="img" aria-label="SeaCheck">
  <defs>
    <linearGradient id="bg" x1="12%" y1="8%" x2="88%" y2="92%">
      <stop offset="0%" stop-color="#0d5a7a"/>
      <stop offset="42%" stop-color="#0b2538"/>
      <stop offset="100%" stop-color="#0b1622"/>
    </linearGradient>
    <radialGradient id="shine" cx="32%" cy="16%" r="56%">
      <stop offset="0%" stop-color="#0073ad" stop-opacity="0.34"/>
      <stop offset="55%" stop-color="#0073ad" stop-opacity="0.08"/>
      <stop offset="100%" stop-color="#0073ad" stop-opacity="0"/>
    </radialGradient>
    <linearGradient id="north" x1="0%" y1="100%" x2="0%" y2="0%">
      <stop offset="0%" stop-color="#0073ad"/>
      <stop offset="100%" stop-color="#4dabf7"/>
    </linearGradient>
  </defs>
  <rect width="1024" height="1024" fill="url(#bg)"/>
  <rect width="1024" height="1024" fill="url(#shine)"/>
  <g opacity="0.12" stroke="#4dabf7" stroke-width="2">
    <line x1="128" y1="256" x2="896" y2="256"/>
    <line x1="128" y1="512" x2="896" y2="512"/>
    <line x1="128" y1="768" x2="896" y2="768"/>
    <line x1="256" y1="128" x2="256" y2="896"/>
    <line x1="512" y1="128" x2="512" y2="896"/>
    <line x1="768" y1="128" x2="768" y2="896"/>
  </g>
  <g transform="translate(512 512)">
    <circle r="248" fill="none" stroke="#ffffff" stroke-width="5" opacity="0.22"/>
    <circle r="198" fill="none" stroke="#ffffff" stroke-width="6" opacity="0.38"/>
    <g fill="#ffffff" opacity="0.72">
      <polygon points="0,-258 20,-20 0,0 -20,-20" transform="rotate(45)"/>
      <polygon points="0,-258 20,-20 0,0 -20,-20" transform="rotate(135)"/>
      <polygon points="0,-258 20,-20 0,0 -20,-20" transform="rotate(225)"/>
      <polygon points="0,-258 20,-20 0,0 -20,-20" transform="rotate(315)"/>
    </g>
    <g fill="#ffffff">
      <polygon points="0,-276 36,-34 0,0 -36,-34" transform="rotate(90)"/>
      <polygon points="0,-276 36,-34 0,0 -36,-34" transform="rotate(180)"/>
      <polygon points="0,-276 36,-34 0,0 -36,-34" transform="rotate(270)"/>
    </g>
    <polygon points="0,-276 36,-34 0,0 -36,-34" fill="url(#north)"/>
    <circle r="40" fill="#ffffff"/>
    <circle r="18" fill="#0b1622"/>
  </g>
</svg>
