<?xml version="1.0" encoding="UTF-8"?>
<!-- Android themed / notification icon -->
<svg xmlns="http://www.w3.org/2000/svg" width="1024" height="1024" viewBox="0 0 1024 1024" aria-hidden="true">
  <g transform="translate(512 512)" fill="#000000">
    <polygon points="0,-258 20,-20 0,0 -20,-20" transform="rotate(45)"/>
    <polygon points="0,-258 20,-20 0,0 -20,-20" transform="rotate(135)"/>
    <polygon points="0,-258 20,-20 0,0 -20,-20" transform="rotate(225)"/>
    <polygon points="0,-258 20,-20 0,0 -20,-20" transform="rotate(315)"/>
    <polygon points="0,-276 36,-34 0,0 -36,-34"/>
    <polygon points="0,-276 36,-34 0,0 -36,-34" transform="rotate(90)"/>
    <polygon points="0,-276 36,-34 0,0 -36,-34" transform="rotate(180)"/>
    <polygon points="0,-276 36,-34 0,0 -36,-34" transform="rotate(270)"/>
    <circle r="40"/>
    <circle r="18" fill="#ffffff"/>
  </g>
</svg>
