<?xml version="1.0" encoding="UTF-8"?>
<svg xmlns="http://www.w3.org/2000/svg" width="1024" height="1024" viewBox="0 0 1024 1024" aria-hidden="true">
  <defs>
    <linearGradient id="north" x1="0%" y1="100%" x2="0%" y2="0%">
      <stop offset="0%" stop-color="#0073ad"/>
      <stop offset="100%" stop-color="#4dabf7"/>
    </linearGradient>
  </defs>
  <g transform="translate(512 512)">
    <circle r="248" fill="none" stroke="#ffffff" stroke-width="5" opacity="0.22"/>
    <circle r="198" fill="none" stroke="#ffffff" stroke-width="6" opacity="0.38"/>
    <g fill="#ffffff" opacity="0.72">
      <polygon points="0,-258 20,-20 0,0 -20,-20" transform="rotate(45)"/>
      <polygon points="0,-258 20,-20 0,0 -20,-20" transform="rotate(135)"/>
      <polygon points="0,-258 20,-20 0,0 -20,-20" transform="rotate(225)"/>
      <polygon points="0,-258 20,-20 0,0 -20,-20" transform="rotate(315)"/>
    </g>
    <g fill="#ffffff">
      <polygon points="0,-276 36,-34 0,0 -36,-34" transform="rotate(90)"/>
      <polygon points="0,-276 36,-34 0,0 -36,-34" transform="rotate(180)"/>
      <polygon points="0,-276 36,-34 0,0 -36,-34" transform="rotate(270)"/>
    </g>
    <polygon points="0,-276 36,-34 0,0 -36,-34" fill="url(#north)"/>
    <circle r="40" fill="#ffffff"/>
    <circle r="18" fill="#0b1622"/>
  </g>
</svg>
